<svg width="93" height="91" viewBox="0 0 93 91" fill="none" xmlns="http://www.w3.org/2000/svg">
<path d="M91 49.5094V40.5756C91 36.6123 87.5086 33.3636 83.2061 33.3636C82.1834 33.3636 81.3017 32.9088 80.7375 32.2266C83.2061 30.2449 84.8284 27.3212 84.8284 24.0725C84.8284 18.095 79.5384 13.222 73.0494 13.222C71.286 13.222 69.6285 13.5794 68.1121 14.2291C68.0415 17.2828 67.2304 20.1416 65.8903 22.7406C72.203 24.8847 76.7523 30.4399 76.7523 37.0021V46.264H69.7026V37.0054C69.6989 34.6793 68.6941 32.4494 66.9085 30.8046C65.123 29.1598 62.7023 28.2342 60.1771 28.2308C59.0525 28.2281 57.952 27.9303 57.0045 27.3722C56.057 26.8141 55.3017 26.0188 54.8272 25.0796C56.7546 23.8006 58.3253 22.1187 59.4104 20.1722C60.4955 18.2256 61.064 16.0697 61.0694 13.8815C61.0694 6.22766 54.3088 0 46 0C37.6912 0 30.9306 6.22766 30.9306 13.8815C30.936 16.0697 31.5045 18.2256 32.5896 20.1722C33.6747 22.1187 35.2454 23.8006 37.1728 25.0796C36.2277 26.9346 34.1928 28.2308 31.8229 28.2308C29.2971 28.2342 26.8759 29.1602 25.0902 30.8057C23.3046 32.4513 22.3002 34.682 22.2974 37.0086V46.2673H15.2476V37.0021C15.2476 30.4399 19.797 24.8847 26.1097 22.7406C24.7696 20.1416 23.9585 17.2828 23.8879 14.2291C22.3715 13.5794 20.7139 13.222 18.9506 13.222C12.4616 13.222 7.17163 18.095 7.17163 24.0725C7.17163 27.3212 8.79389 30.2449 11.2625 32.2266C10.6983 32.9088 9.81661 33.3636 8.79389 33.3636C4.49138 33.3636 1 36.6123 1 40.5756V49.5094L1.00353 49.5322C0.969443 58.8999 4.42092 67.9955 10.7829 75.3037L10.7864 75.3102L10.7935 75.3167L10.8887 75.4337C14.6313 79.7231 19.2632 83.2837 24.5144 85.9078C29.7656 88.532 35.5312 90.1673 41.4753 90.7186C44.1697 91.1149 47.1673 91.0564 49.8828 90.7673C55.9412 90.2852 61.831 88.6784 67.1973 86.0438C72.5636 83.4091 77.2955 79.801 81.1078 75.4369L81.2065 75.3167L81.21 75.3102L81.2136 75.3037C87.5768 67.996 91.0296 58.9003 90.9965 49.5322L91 49.5094ZM49.5266 60.6523V52.7581H64.0141C63.7496 56.0903 63.1042 59.3875 62.0886 62.595C57.9906 61.5266 53.7784 60.873 49.5266 60.6458V60.6523ZM42.4734 52.7613V60.6556C38.1119 60.887 33.7921 61.5659 29.594 62.6795C28.5763 59.4452 27.9343 56.1205 27.6791 52.7613H42.4734ZM42.4734 67.1561V82.9023C38.1026 78.8242 34.579 74.0435 32.0768 68.7967C35.4624 67.9293 38.9538 67.3738 42.4734 67.1561ZM25.3339 71.022C27.1673 74.9541 29.507 78.669 32.3025 82.0869C27.2958 80.3031 22.7553 77.5642 18.9788 74.0497C21.0172 72.8965 23.1473 71.9024 25.3339 71.022ZM49.5266 67.1496C52.9263 67.3608 56.2908 67.8968 59.5635 68.709C57.0982 73.7665 53.7026 78.3935 49.5266 82.3858V67.1496ZM20.6258 52.7646C20.8938 56.8839 21.6838 60.9447 22.9534 64.8983C20.0474 66.0353 17.2508 67.3868 14.5741 68.9526C11.0121 64.0926 8.79036 58.6122 8.21552 52.7646H20.6258ZM59.0168 82.2981C61.9494 78.7854 64.4056 74.9562 66.3311 70.8953C68.634 71.7984 70.8699 72.838 73.0141 74.0465C69.0635 77.7129 64.2863 80.5306 59.0168 82.2981ZM77.4259 68.9559C74.6628 67.3414 71.7572 65.9439 68.7398 64.7781C69.9988 60.8895 70.7853 56.8709 71.0674 52.7646H83.7845C83.2096 58.6122 80.9914 64.0926 77.4259 68.9559Z" fill="black"/>
<g filter="url(#filter0_d_16_21)">
<path d="M13.7079 43.6C13.7079 44.152 13.5719 44.656 13.2999 45.112C13.0359 45.56 12.6759 45.92 12.2199 46.192C11.7639 46.464 11.2599 46.6 10.7079 46.6H5.88391V45.412H10.7079C11.0439 45.412 11.3479 45.332 11.6199 45.172C11.8919 45.004 12.1079 44.784 12.2679 44.512C12.4279 44.232 12.5079 43.928 12.5079 43.6C12.5079 43.264 12.4279 42.96 12.2679 42.688C12.1079 42.416 11.8919 42.2 11.6199 42.04C11.3479 41.88 11.0439 41.8 10.7079 41.8H5.21191V49H4.01191V40.6H10.7079C11.2599 40.6 11.7639 40.736 12.2199 41.008C12.6759 41.272 13.0359 41.632 13.2999 42.088C13.5719 42.544 13.7079 43.048 13.7079 43.6ZM22.5889 49H20.9569L19.0849 47.212H16.6489V46.024H19.9729C20.3089 46.024 20.5929 45.904 20.8249 45.664C21.0649 45.416 21.1849 45.128 21.1849 44.8C21.1849 44.464 21.0649 44.18 20.8249 43.948C20.5929 43.708 20.3089 43.588 19.9729 43.588H16.0249V49H14.8249V42.4H19.9729C20.4209 42.4 20.8249 42.508 21.1849 42.724C21.5449 42.94 21.8329 43.232 22.0489 43.6C22.2649 43.96 22.3729 44.36 22.3729 44.8C22.3729 45.16 22.2969 45.5 22.1449 45.82C22.0009 46.132 21.7969 46.404 21.5329 46.636C21.2769 46.86 20.9809 47.02 20.6449 47.116L22.5889 49ZM31.5775 45.688C31.5775 46.296 31.4495 46.852 31.1935 47.356C30.9455 47.852 30.5935 48.252 30.1375 48.556C29.6815 48.852 29.1495 49 28.5415 49H26.4535C25.8455 49 25.3095 48.852 24.8455 48.556C24.3895 48.252 24.0335 47.852 23.7775 47.356C23.5295 46.852 23.4055 46.296 23.4055 45.688C23.4055 45.08 23.5295 44.528 23.7775 44.032C24.0335 43.536 24.3895 43.14 24.8455 42.844C25.3095 42.548 25.8455 42.4 26.4535 42.4H28.5415C29.1495 42.4 29.6815 42.548 30.1375 42.844C30.5935 43.14 30.9455 43.536 31.1935 44.032C31.4495 44.528 31.5775 45.08 31.5775 45.688ZM30.3775 45.688C30.3775 45.304 30.3055 44.952 30.1615 44.632C30.0175 44.312 29.8055 44.06 29.5255 43.876C29.2535 43.684 28.9255 43.588 28.5415 43.588H26.4535C26.0695 43.588 25.7375 43.684 25.4575 43.876C25.1855 44.06 24.9735 44.312 24.8215 44.632C24.6775 44.952 24.6055 45.304 24.6055 45.688C24.6055 46.072 24.6775 46.424 24.8215 46.744C24.9735 47.064 25.1855 47.32 25.4575 47.512C25.7375 47.704 26.0695 47.8 26.4535 47.8H28.5415C28.9255 47.8 29.2535 47.704 29.5255 47.512C29.8055 47.32 30.0175 47.064 30.1615 46.744C30.3055 46.424 30.3775 46.072 30.3775 45.688ZM39.807 43.588H34.119V49H32.907V42.376H39.807V43.588ZM39.027 46.264H34.683V45.052H39.027V46.264ZM54.5613 46.6C54.5613 47.04 54.4533 47.444 54.2373 47.812C54.0213 48.172 53.7333 48.46 53.3733 48.676C53.0133 48.892 52.6093 49 52.1613 49H44.8653V47.8H52.1613C52.4973 47.8 52.7813 47.684 53.0133 47.452C53.2453 47.212 53.3613 46.928 53.3613 46.6C53.3613 46.272 53.2453 45.992 53.0133 45.76C52.7813 45.52 52.4973 45.4 52.1613 45.4H47.2653C46.8253 45.4 46.4213 45.292 46.0533 45.076C45.6933 44.86 45.4053 44.572 45.1893 44.212C44.9733 43.844 44.8653 43.44 44.8653 43C44.8653 42.56 44.9733 42.16 45.1893 41.8C45.4053 41.432 45.6933 41.14 46.0533 40.924C46.4213 40.708 46.8253 40.6 47.2653 40.6H53.9613V41.8H47.2653C46.9373 41.8 46.6533 41.92 46.4133 42.16C46.1813 42.392 46.0653 42.672 46.0653 43C46.0653 43.328 46.1813 43.612 46.4133 43.852C46.6533 44.084 46.9373 44.2 47.2653 44.2H52.1613C52.6093 44.2 53.0133 44.308 53.3733 44.524C53.7333 44.74 54.0213 45.032 54.2373 45.4C54.4533 45.76 54.5613 46.16 54.5613 46.6ZM59.2542 49H58.0542V43.588H54.8742V42.4H62.4222V43.588H59.2542V49ZM70.6659 49H69.4659V47.188H64.8459V45.964H69.4659V43.588H66.3459C65.9539 43.588 65.5979 43.684 65.2779 43.876C64.9579 44.068 64.7019 44.324 64.5099 44.644C64.3179 44.956 64.2219 45.308 64.2219 45.7V49H63.0099V45.7C63.0099 45.244 63.0939 44.816 63.2619 44.416C63.4379 44.008 63.6779 43.652 63.9819 43.348C64.2939 43.044 64.6499 42.808 65.0499 42.64C65.4579 42.464 65.8899 42.376 66.3459 42.376H70.6659V49ZM80.1632 49H78.5312L76.6592 47.212H74.2232V46.024H77.5472C77.8832 46.024 78.1672 45.904 78.3992 45.664C78.6392 45.416 78.7592 45.128 78.7592 44.8C78.7592 44.464 78.6392 44.18 78.3992 43.948C78.1672 43.708 77.8832 43.588 77.5472 43.588H73.5992V49H72.3992V42.4H77.5472C77.9952 42.4 78.3992 42.508 78.7592 42.724C79.1192 42.94 79.4072 43.232 79.6232 43.6C79.8392 43.96 79.9472 44.36 79.9472 44.8C79.9472 45.16 79.8712 45.5 79.7192 45.82C79.5752 46.132 79.3712 46.404 79.1072 46.636C78.8512 46.86 78.5552 47.02 78.2192 47.116L80.1632 49ZM88.6117 47.056C88.6117 47.416 88.5237 47.744 88.3477 48.04C88.1797 48.328 87.9477 48.56 87.6517 48.736C87.3557 48.912 87.0277 49 86.6677 49H81.0637V47.8H86.6677C86.8757 47.8 87.0517 47.728 87.1957 47.584C87.3477 47.44 87.4237 47.264 87.4237 47.056C87.4237 46.848 87.3477 46.672 87.1957 46.528C87.0517 46.376 86.8757 46.3 86.6677 46.3H82.9957C82.6437 46.3 82.3197 46.212 82.0237 46.036C81.7357 45.86 81.5037 45.624 81.3277 45.328C81.1517 45.032 81.0637 44.704 81.0637 44.344C81.0637 43.992 81.1517 43.668 81.3277 43.372C81.5037 43.076 81.7357 42.84 82.0237 42.664C82.3197 42.488 82.6437 42.4 82.9957 42.4H88.1677V43.588H82.9957C82.7957 43.588 82.6197 43.664 82.4677 43.816C82.3237 43.96 82.2517 44.136 82.2517 44.344C82.2517 44.552 82.3237 44.732 82.4677 44.884C82.6197 45.028 82.7957 45.1 82.9957 45.1H86.6677C87.0277 45.1 87.3557 45.188 87.6517 45.364C87.9477 45.54 88.1797 45.776 88.3477 46.072C88.5237 46.368 88.6117 46.696 88.6117 47.056Z" fill="#FFF5F5"/>
</g>
<path d="M78 69L78.8981 71.7639H81.8042L79.4531 73.4721L80.3511 76.2361L78 74.5279L75.6489 76.2361L76.5469 73.4721L74.1958 71.7639H77.1019L78 69Z" fill="#FFE851"/>
<path d="M14 69L14.8981 71.7639H17.8042L15.4531 73.4721L16.3511 76.2361L14 74.5279L11.6489 76.2361L12.5469 73.4721L10.1958 71.7639H13.1019L14 69Z" fill="#FFE851"/>
<path d="M46 57L47.3471 61.1459H51.7063L48.1796 63.7082L49.5267 67.8541L46 65.2918L42.4733 67.8541L43.8204 63.7082L40.2937 61.1459H44.6529L46 57Z" fill="#FFE851"/>
<defs>
<filter id="filter0_d_16_21" x="0.0119057" y="40.6" width="92.5998" height="16.4" filterUnits="userSpaceOnUse" color-interpolation-filters="sRGB">
<feFlood flood-opacity="0" result="BackgroundImageFix"/>
<feColorMatrix in="SourceAlpha" type="matrix" values="0 0 0 0 0 0 0 0 0 0 0 0 0 0 0 0 0 0 127 0" result="hardAlpha"/>
<feOffset dy="4"/>
<feGaussianBlur stdDeviation="2"/>
<feComposite in2="hardAlpha" operator="out"/>
<feColorMatrix type="matrix" values="0 0 0 0 0 0 0 0 0 0 0 0 0 0 0 0 0 0 0.25 0"/>
<feBlend mode="normal" in2="BackgroundImageFix" result="effect1_dropShadow_16_21"/>
<feBlend mode="normal" in="SourceGraphic" in2="effect1_dropShadow_16_21" result="shape"/>
</filter>
</defs>
</svg>
